<?xml version="1.0" encoding="utf-8"?>
<!-- Generator: Adobe Illustrator 16.0.1, SVG Export Plug-In . SVG Version: 6.00 Build 0)  -->
<!DOCTYPE svg PUBLIC "-//W3C//DTD SVG 1.1//EN" "http://www.w3.org/Graphics/SVG/1.1/DTD/svg11.dtd">
<svg version="1.1" id="Layer_1" xmlns="http://www.w3.org/2000/svg" xmlns:xlink="http://www.w3.org/1999/xlink" x="0px" y="0px"
	 width="280px" height="50px" viewBox="0 0 280 50" enable-background="new 0 0 280 50" xml:space="preserve">
<g>
	<defs>
		<rect id="SVGID_1_" y="1.463" width="280" height="47.074"/>
	</defs>
	<clipPath id="SVGID_2_">
		<use xlink:href="#SVGID_1_"  overflow="visible"/>
	</clipPath>
	<path clip-path="url(#SVGID_2_)" fill="#FFFFFF" d="M276.615,33.592c0.564,0,1.121,0.146,1.664,0.439
		c0.541,0.291,0.967,0.709,1.27,1.254c0.301,0.543,0.451,1.111,0.451,1.701c0,0.586-0.146,1.145-0.446,1.686
		c-0.299,0.539-0.714,0.961-1.255,1.254c-0.537,0.303-1.104,0.451-1.684,0.451c-0.589,0-1.154-0.148-1.689-0.451
		c-0.542-0.293-0.955-0.715-1.258-1.254c-0.297-0.541-0.447-1.1-0.447-1.686c0-0.59,0.152-1.158,0.453-1.701
		c0.305-0.545,0.73-0.963,1.273-1.254C275.484,33.738,276.043,33.592,276.615,33.592 M276.615,34.154
		c-0.48,0-0.942,0.123-1.397,0.367c-0.448,0.244-0.8,0.594-1.057,1.049c-0.254,0.451-0.383,0.926-0.383,1.416
		c0,0.488,0.129,0.957,0.378,1.406c0.252,0.447,0.6,0.795,1.049,1.047c0.449,0.248,0.918,0.377,1.41,0.377
		c0.486,0,0.957-0.129,1.401-0.377c0.451-0.252,0.8-0.6,1.048-1.047c0.248-0.449,0.375-0.918,0.375-1.406
		c0-0.49-0.129-0.965-0.381-1.416c-0.25-0.455-0.607-0.805-1.057-1.049C277.551,34.277,277.083,34.154,276.615,34.154
		 M275.127,38.861v-3.65h1.249c0.43,0,0.741,0.033,0.932,0.1c0.194,0.068,0.347,0.186,0.459,0.354
		c0.114,0.17,0.171,0.346,0.171,0.537c0,0.268-0.097,0.5-0.283,0.695c-0.19,0.197-0.442,0.309-0.76,0.334
		c0.127,0.055,0.234,0.119,0.307,0.191c0.152,0.146,0.33,0.383,0.545,0.727l0.443,0.713h-0.717l-0.326-0.576
		c-0.254-0.449-0.459-0.734-0.614-0.85c-0.108-0.084-0.271-0.125-0.474-0.125h-0.346v1.551H275.127z M275.713,36.809h0.714
		c0.343,0,0.575-0.053,0.7-0.154c0.123-0.1,0.185-0.238,0.185-0.404c0-0.107-0.029-0.207-0.089-0.289
		c-0.062-0.084-0.143-0.15-0.248-0.189c-0.105-0.043-0.301-0.064-0.592-0.064h-0.67V36.809z"/>
	<path clip-path="url(#SVGID_2_)" fill="#FFFFFF" d="M95.791,41.676c-4.545,0.289-3.202-3.615-2.271-4.816
		c0.804-1.01,2.664-3.031,3.571-3.799l4.316-3.447c0.952-0.623,15.845-12.003,23.199-15.391c0.722-0.329,2.417-1.2,3.864-1.59
		c0.927-0.248,4.543-0.558,5.165-0.227c0.64,0.309,0.846,0.495,1.281,0.865c0.557,0.848,0.906,1.799-2.357,2.954
		c-2.127,0.827-9.791,5.457-10.848,6.364c-0.411,0.537,0.293,0.703,0.54,0.682c11.65-0.682,17.581-4.936,18.899-7.126
		c0.312-0.538,0.373-1.094,0.289-1.529c-0.371-1.901-2.292-3.305-5.49-3.389c-1.305-0.082-3.265-0.164-4.939-0.061l-5.682,0.559
		c-0.473,0.041-6.3,0.559-11.649,3.285c-2.686,1.361-5.226,3.346-6.962,5.846c-0.929,1.322-2.085,2.355-3.058,2.394
		c-0.868,0.022-1.116-0.431-1.363-1.713c-0.228-1.197-0.228-6.114,3.676-8.387c4.814-2.789,9.295-4.441,25.22-5.434
		c6.18-0.205,11.425,0.579,14.568,1.857c3.217,1.324,4.998,5.271,3.736,7.542c-0.787,1.445-2.252,2.892-3.719,3.925
		c0.497-0.309,2.646-1.59,5.866-2.294c3.698-0.764,7.062-0.102,6.753,2.315c0,0.083-0.08,0.909,0.602,1.239
		c0.225,0.125,0.64,0.125,1.033,0.64c0.598,0.784,0.764,2.086,0.205,2.479c-1.53,1.033-1.898,1.467-2.395,2.023
		c-1.402,1.59-1.182,3.119,1.961,1.613c0.703-0.311,1.691-1.385,2.707-2.17c5.453-6.031,6.382-6.259,8.924-6.981
		c0.701-0.206,2.168-0.6,2.912,0.205c0.722,0.6,0.847,1.531-0.062,2.42l-2.439,2.456c-1.484,1.589-2.207,3.366-2.477,4.608
		c0.6,0.742,2.561-0.848,4.463-2.58c1.715-1.551,3.367-3.144,4.379-4.754c3.697-5.286,6.797-6.155,10.677-4.792
		c1.075,0.536,1.759,1.299,0.849,2.188l-5.083,3.8c-1.587,1.24-3.408,3.512-5.101,5.393c-4.422,4.836-5.826,7.643-8.14,10.287
		c-5.431,6.756-10.061,9.131-17.435,9.4c-4.441-0.064-7.127,0.369-10.721-1.488c-2.354-1.242-2.576-1.592-2.576-1.963
		c0-0.393-0.191-0.971,0.348-1.715c0.35-0.561,1.008-1.156,2.853-1.795c1.276-0.459,1.88-0.746,3.301-0.727
		c1.86,0.039,2.11,0.457,3.7,1.588c3.654,2.295,9.955,0.439,12.746-1.607c1.795-1.322,3.799-3.861,4.727-4.836
		c-5.121,1.533-6.959-0.641-7.166-2.5c-6.135,4.133-9.398,2.5-9.707-0.162c-1.508,2.045-6.428,4.771-8.473,5.02
		c0.043,0.496,0.436,0.969,0.29,1.736c-0.103,0.41-0.349,0.578-0.87,1.113c-0.535,0.518-2.125,1.283-3.901,1.527
		c-5.02,0.682-5.679,1.348-5.474-3.342c-2.149-2.5-12.931-9.672-19.229-9.465c-3.535,0.105-8.492,4.898-8.595,6.426
		c0.64,1.941,1.199,3.346-0.725,3.863C103.104,40.582,98.931,41.467,95.791,41.676 M145.779,21.04
		C145.654,21.143,145.654,21.143,145.779,21.04 M190.171,30.936c-0.375-0.994,0.06-2.457,0.165-2.916
		c0.165-0.598,0.598-1.197,0.805-1.484c1.57-2.355,3.264-3.926,3.82-4.587c0.764-0.928,2.853-2.478,2.48,1.466
		c0.102,0.704,1.094,1.467,2.436,1.984c2.521,0.951,10.493,1.196,21.154-6.321c6.631-4.691,13.694-11.632,22.02-14.728
		c5.348-1.984,12.022-3.865,18.403-2.313c1.015,0.205,2.293,2.104,0.932,3.571c-2.106,2.275-3.802,4.38-5.536,6.054
		c-0.332,0.309-0.535,0.371-0.767,0.455c-0.307,0.123-0.804,0.184-1.153-0.166c-0.35-0.332-0.682-1.055-1.611-1.611
		c-0.93-0.558-3.946-0.516-5.084-0.434c-2.565,0.184-6.793,1.279-10.555,2.892c-3.737,1.611-5.971,3.139-8.738,5.123l-8.096,5.886
		c-6.696,4.998-14.75,9.046-20.161,9.812c-5.679,0.783-8.159-0.127-8.987-0.639c-0.637-0.416-0.868-0.748-1.361-1.51
		c0,0.039-0.084-0.123-0.084-0.123l0.084,0.123C190.357,31.451,190.316,31.328,190.171,30.936 M0.791,26.451
		c6.32-7.147,7.272-2.996,7.19-1.57c0.145,1.136,0.02,1.941,2.169,3.634c4.191,3.244,11.07,5.535,16.876,5.373
		c5.886-0.168,13.445-2.438,9.85-5.125c-2.415-1.402-8.425-3.946-12.579-5.287c-4.461-1.137-3.719-7.767-0.557-9.191
		c2.314-1.034,6.568-2.729,14.563-4.028c8.675-1.406,17.786-1.572,25.448,0.515c1.198,0.33,8.676,2.375-2.006,7.704
		c-0.123,0.064-1.093,0.434-2.251,0.539c-0.537,0.041-0.99,0.02-0.99-0.166c-1.406-0.559,2.046-3.719-1.611-4.421
		c-2.933-0.559-5.845-0.807-8.964-0.765c-7.045,0.084-14.232,1.302-17.166,2.831c-1.675,0.868-2.065,2.458-0.929,2.788
		c4.627,1.344,10.887,3.802,14.851,7.417c0.908-0.104,1.672-0.949,1.963-1.156c4.254-2.913,6.424-3.885,8.509-4.441
		c1.509-0.248,3.305-0.496,3.884-0.496c1.136,0,3.449,0.248,4.11,0.33c1.694,0.372,3.139,2.416,2.332,4.544
		c0.271,0.25-0.762,1.486-1.712,2.25c-1.282,1.014-2.188,1.16-3.201,1.734c-2.333,0.727-5.827,1.221-8.615,0.869
		c-0.949,4.051,5.514,2.088,6.9,1.631c2.003-0.723,5.062-2.477,6.197-3.24l2.997-2.069c11.463-9.271,16.418-6.67,18.34-3.86
		c0.456,0.641,1.055,1.136,0.743,2.787c1.51,1.613,0.229,2.602-1.94,4.752c-0.662,0.994,0.331,3.057,4.836,0.744
		c2.951-1.508,5.616-3.695,7.33-4.357c1.242-0.457,1.901,0.992,1.901,1.732c-0.081,0.291-0.081,0.229-0.62,0.848
		c-0.516,0.641-4.337,4.008-6.195,5.35c-4.36,2.936-11.299,3.348-12.684,0c0.021,0.045-0.125-0.473-0.497-0.164
		C76.681,37.461,64.847,42.77,64,35.479c-0.207,0-0.312-0.371-0.828-0.414c-2.892,2.023-10.513,5.002-20.654-0.764
		c-3.597,2.645-19.48,8.158-37.637-0.021c-0.829-0.371-1.797-0.932-2.501-1.383C1.123,32.029-1.233,29.549,0.791,26.451
		 M122.439,27.67c2.972,0.703,10.304,3.408,13.094,4.793c0.352,0.062,0.787,0.041,0.85-0.434c0.328-2.148,1.652-3.947,2.454-4.936
		c0.6-0.663,1.735-2.501,4.173-4.177c-1.321,0.914-2.561,1.572-6.422,2.708C132.416,26.865,125.64,27.65,122.439,27.67
		 M253.42,16.019c-7.766,8.78-8.469,10.165-12.848,11.403c-3.554,1.012-5.082,1.303-6.24,1.51c-0.986,0.289-2.353,1.115-3.014,1.98
		c-0.807,1.117-0.865,1.818,1.426,2.025c4.316,0.393,8.859,0.332,12.925,0.123c9.013-0.473,18.656-0.762,25.991-4.998
		c1.613-0.949,3.678-1.758,2.643,1.777c-0.227,0.639-3.345,3.801-6.857,7.498c-0.952,0.969-1.634,1.611-2.52,2.084
		c-1.402,0.744-3.347,1.033-7.6,1.385l-16.961,1.488l-12.476,0.514c-4.235,0.148-6.28-2.537-6.673-5.369
		c-0.333-2.312,0.164-5.309,1.983-6.898c3.408-2.977,6.011-4.852,13.552-6.382c2.888-0.579,6.465-1.86,6.421-2.664
		c-0.06-0.91-1.423-1.054-4.338-0.764c-2.848,0.268-5.392,1.011-7.679,2.021c-4.176,1.861-8.082,5.228-16.428,10.888
		c-15.103,10.244-28.009,15.225-32.242,10.516c-0.803-0.91-1.797-2.998-0.416-5.971c0.479-0.996,1.115-2.295,2.979-4.215
		c0.68-0.701,1.299-1.488,1.939-2.17c0.208-0.205,0.516-0.412,0.705-0.621c0.535-0.537,0.843-0.6,1.072-0.451
		c0.227,0.145,0.496,0.699,0.599,1.26c0.102,0.576,0.847,1.756,2.192,2.211c1.337,0.473,3.898,1.26,9.604,0.473
		c5.412-0.742,13.367-4.855,20.035-9.854l8.098-5.883c2.748-1.984,5.168-3.576,8.924-5.166c3.74-1.611,7.994-2.624,10.535-2.81
		c1.139-0.082,3.203-0.123,4.133,0.433c0.949,0.56,1.777,1.922,1.57,2.706C254.248,14.884,254.018,15.317,253.42,16.019
		 M152.719,25.75c-0.412-1.614-3.366-0.91-5.68,0.391c-2.066,1.197-4.234,3.389-4.172,4.42c0.084,1.652,3.284,1.141,5.742-0.412
		C150.734,28.828,152.928,26.514,152.719,25.75 M79.864,25.46c-1.847-0.298-4.47,0.781-6.62,2.249
		c-2.945,2.01-4.999,4.748-2.945,5.682c1.474,0.666,4.122-0.596,6.374-2.301C79.661,28.828,81.949,25.787,79.864,25.46
		 M54.58,26.387c0.661,0.328,1.926,0.223,3.078-0.086c1.484-0.396,2.784-1.131,2.379-1.708c-0.312-0.362-1.775-0.186-3.109,0.218
		C55.592,25.213,54.385,25.842,54.58,26.387"/>
</g>
</svg>
